<svg width="118" height="119" viewBox="0 0 118 119" fill="none" xmlns="http://www.w3.org/2000/svg">
  <g clip-path="url(#clip0_2047_1934)">
    <rect width="200" height="33" transform="translate(-46.8799 95.54) rotate(-45)" fill="#EB2321" />
    <path
      d="M22.6312 55.9328C22.156 56.4079 21.6384 56.8011 21.0784 57.1122C20.5127 57.4177 19.9951 57.6015 19.5256 57.6638L18.9571 56.1619C19.3927 56.0883 19.8424 55.9384 20.3063 55.7121C20.7701 55.4746 21.1802 55.1776 21.5366 54.8212C21.8082 54.5497 22.0005 54.3064 22.1136 54.0915C22.2268 53.8652 22.2748 53.6644 22.2579 53.489C22.2409 53.3136 22.1702 53.1637 22.0457 53.0393C21.8873 52.8809 21.7007 52.8187 21.4857 52.8526C21.2651 52.8809 21.0247 52.9686 20.7645 53.1156C20.4986 53.2571 20.2157 53.4268 19.9159 53.6248C19.6161 53.8114 19.3022 53.9896 18.9741 54.1593C18.6516 54.3234 18.3264 54.445 17.9983 54.5242C17.6702 54.6034 17.3392 54.6062 17.0055 54.5327C16.6774 54.4535 16.3549 54.2555 16.0382 53.9387C15.6987 53.5993 15.481 53.2005 15.3848 52.7423C15.2886 52.2728 15.3424 51.7721 15.546 51.2404C15.7497 50.6973 16.1315 50.1458 16.6915 49.5858C17.0649 49.2124 17.4778 48.89 17.9304 48.6184C18.3773 48.3413 18.827 48.1518 19.2795 48.0499L19.899 49.5179C19.4634 49.6367 19.0702 49.7979 18.7195 50.0015C18.3631 50.1995 18.052 50.4315 17.7861 50.6973C17.5203 50.9632 17.3336 51.2121 17.2261 51.444C17.1186 51.676 17.079 51.8796 17.1073 52.055C17.1299 52.2247 17.2063 52.3746 17.3364 52.5047C17.4891 52.6574 17.6758 52.7197 17.8964 52.6914C18.1114 52.6574 18.349 52.5669 18.6092 52.4198C18.8694 52.2728 19.1494 52.1059 19.4492 51.9192C19.7547 51.7269 20.0658 51.5459 20.3826 51.3762C20.7051 51.2008 21.0303 51.0735 21.3584 50.9943C21.6865 50.9151 22.0146 50.9151 22.3427 50.9943C22.6765 51.0679 22.9989 51.2602 23.31 51.5713C23.6438 51.9051 23.8559 52.3039 23.9464 52.7677C24.037 53.2316 23.9804 53.7351 23.7767 54.2781C23.5787 54.8155 23.1969 55.3671 22.6312 55.9328ZM25.9888 52.3715L20.0491 46.4318L22.6202 43.8608C23.1519 43.329 23.6978 42.9585 24.2578 42.7492C24.8122 42.5342 25.3552 42.4833 25.887 42.5965C26.4187 42.7096 26.9081 42.9896 27.3549 43.4365C27.7962 43.8778 28.0734 44.3642 28.1865 44.896C28.2996 45.4277 28.2516 45.9736 28.0422 46.5336C27.8273 47.088 27.4539 47.6311 26.9222 48.1628L25.1148 49.9702L25.1063 48.7398L27.3634 50.9969L25.9888 52.3715ZM25.2591 48.8926L23.9948 48.8501L25.7258 47.1191C26.15 46.6949 26.3763 46.2876 26.4046 45.8973C26.4329 45.5069 26.2858 45.1505 25.9634 44.8281C25.6353 44.5 25.276 44.3501 24.8857 44.3784C24.4954 44.4067 24.0881 44.6329 23.6638 45.0572L21.9328 46.7882L21.8904 45.5239L25.2591 48.8926ZM29.8382 41.4284L32.6978 38.5689L33.7669 39.638L30.9074 42.4976L29.8382 41.4284ZM32.3838 43.7704L35.6167 40.5375L36.7198 41.6406L32.1208 46.2396L26.1811 40.2999L30.6698 35.8112L31.7729 36.9143L28.6503 40.0368L32.3838 43.7704ZM40.7579 37.8061C40.2997 38.2643 39.7991 38.6178 39.256 38.8667C38.713 39.1043 38.1586 39.2288 37.5929 39.2401C37.0272 39.2514 36.4757 39.1524 35.9383 38.9431C35.4065 38.7281 34.9172 38.3972 34.4703 37.9503C34.0234 37.5034 33.6925 37.0141 33.4775 36.4824C33.2682 35.945 33.1692 35.3934 33.1806 34.8277C33.1975 34.2564 33.3276 33.702 33.5709 33.1646C33.8085 32.6216 34.1592 32.1181 34.6231 31.6542C35.1378 31.1395 35.6922 30.7661 36.2862 30.5342C36.8801 30.2909 37.4911 30.2004 38.119 30.2627L38.0511 31.9597C37.6155 31.9314 37.2167 31.9852 36.8547 32.1209C36.487 32.251 36.1561 32.4632 35.8619 32.7573C35.5847 33.0345 35.3754 33.3343 35.234 33.6568C35.0926 33.9792 35.0219 34.3101 35.0219 34.6495C35.0219 34.989 35.0897 35.3227 35.2255 35.6508C35.3669 35.9732 35.5791 36.2759 35.8619 36.5587C36.1447 36.8416 36.4474 37.0537 36.7698 37.1951C37.0979 37.3309 37.4317 37.3988 37.7711 37.3988C38.1105 37.3988 38.4414 37.3281 38.7639 37.1866C39.0863 37.0452 39.3861 36.8359 39.6633 36.5587C39.9575 36.2646 40.1724 35.9365 40.3082 35.5744C40.4383 35.2067 40.4864 34.8023 40.4524 34.361L42.1495 34.2932C42.2117 34.9211 42.124 35.5348 41.8865 36.1345C41.6545 36.7284 41.2783 37.2856 40.7579 37.8061ZM44.0366 34.3237L38.0969 28.384L39.4715 27.0094L45.4112 32.9491L44.0366 34.3237ZM46.0402 32.3201L42.7479 23.733L44.1056 22.3754L52.7011 25.6592L51.2587 27.1017L43.8425 24.03L44.3856 23.487L47.4488 30.9116L46.0402 32.3201ZM46.0911 29.7236L45.4123 28.3151L48.467 25.2604L49.884 25.9307L46.0911 29.7236ZM53.3174 25.0429L47.3777 19.1032L48.7523 17.7286L53.572 22.5483L56.5503 19.5699L57.6703 20.69L53.3174 25.0429Z"
      fill="white" />
  </g>
  <defs>
    <clipPath id="clip0_2047_1934">
      <rect width="200" height="33" fill="white" transform="translate(-46.8799 95.54) rotate(-45)" />
    </clipPath>
  </defs>
</svg>