<svg width="13" height="11" viewBox="0 0 13 11" fill="none" xmlns="http://www.w3.org/2000/svg">
  <path
    d="M5.30762 2.09766H6.00586L6.06934 2.61816H7.65625L7.70703 2.09766H8.41797C8.49414 2.09766 8.55762 2.07227 8.6084 2.02148C8.65918 1.9707 8.68457 1.90723 8.68457 1.83105V1.12012C8.68457 1.05241 8.65918 0.991048 8.6084 0.936035C8.55762 0.881022 8.49414 0.853516 8.41797 0.853516H5.30762C5.23145 0.853516 5.16797 0.881022 5.11719 0.936035C5.06641 0.991048 5.04102 1.05241 5.04102 1.12012V1.83105C5.04102 1.90723 5.06641 1.9707 5.11719 2.02148C5.16797 2.07227 5.23145 2.09766 5.30762 2.09766ZM12.3408 4.09082H11.4141C11.3464 4.09082 11.2871 4.11621 11.2363 4.16699C11.1855 4.21777 11.1602 4.28125 11.1602 4.35742V5.13184H10.5V3.46875C10.4915 3.3418 10.4619 3.25081 10.4111 3.1958C10.3604 3.14079 10.2799 3.11328 10.1699 3.11328H5.21875C5.06641 3.11328 4.93099 3.13867 4.8125 3.18945C4.69401 3.24023 4.58822 3.3291 4.49512 3.45605C4.35124 3.64225 4.20312 3.8221 4.05078 3.99561C3.89844 4.16911 3.74609 4.34049 3.59375 4.50977H2.47656C2.39193 4.50977 2.31787 4.53092 2.25439 4.57324C2.19092 4.61556 2.15495 4.70443 2.14648 4.83984V5.7793H1.47363V5.03027C1.47363 4.9541 1.44824 4.89062 1.39746 4.83984C1.34668 4.78906 1.2832 4.76367 1.20703 4.76367H0.55957C0.483398 4.76367 0.419922 4.78906 0.369141 4.83984C0.318359 4.89062 0.292969 4.9541 0.292969 5.03027V8.19141C0.292969 8.26758 0.318359 8.33105 0.369141 8.38184C0.419922 8.43262 0.483398 8.45801 0.55957 8.45801H1.20703C1.2832 8.45801 1.34668 8.43262 1.39746 8.38184C1.44824 8.33105 1.47363 8.26758 1.47363 8.19141V7.44238H2.15918V8.41992C2.15918 8.52995 2.18034 8.61035 2.22266 8.66113C2.26497 8.71191 2.34961 8.7373 2.47656 8.7373H3.60645C3.77572 8.94043 3.94287 9.13721 4.10791 9.32764C4.27295 9.51807 4.43587 9.71484 4.59668 9.91797C4.66439 9.99414 4.74268 10.0513 4.83154 10.0894C4.92041 10.1274 5.01139 10.1465 5.10449 10.1465C5.64616 10.138 6.18571 10.1338 6.72314 10.1338C7.26058 10.1338 7.80013 10.138 8.3418 10.1465C8.4349 10.1465 8.528 10.1274 8.62109 10.0894C8.71419 10.0513 8.80306 9.98991 8.8877 9.90527C9.13314 9.65983 9.35954 9.43132 9.56689 9.21973C9.77425 9.00814 9.94987 8.81348 10.0938 8.63574C10.2122 8.49186 10.3096 8.36491 10.3857 8.25488C10.4619 8.14486 10.5 7.95866 10.5 7.69629V7.58203H11.1602V8.36914C11.1602 8.43685 11.1855 8.49609 11.2363 8.54688C11.2871 8.59766 11.3506 8.62305 11.4268 8.62305H12.3408C12.417 8.62305 12.4805 8.59766 12.5312 8.54688C12.582 8.49609 12.6074 8.43685 12.6074 8.36914V4.35742C12.6074 4.28125 12.582 4.21777 12.5312 4.16699C12.4805 4.11621 12.417 4.09082 12.3408 4.09082ZM9.01465 4.56055H5.49805L5.04102 5.09375C5.01562 5.11914 4.986 5.1403 4.95215 5.15723C4.91829 5.17415 4.88021 5.18262 4.83789 5.18262C4.8125 5.18262 4.78499 5.17627 4.75537 5.16357C4.72575 5.15088 4.69824 5.13607 4.67285 5.11914C4.61361 5.06836 4.58187 5.007 4.57764 4.93506C4.5734 4.86312 4.59668 4.79753 4.64746 4.73828L5.18066 4.11621C5.20605 4.09082 5.23568 4.06966 5.26953 4.05273C5.30339 4.03581 5.34147 4.02734 5.38379 4.02734H9.01465C9.09082 4.02734 9.1543 4.05273 9.20508 4.10352C9.25586 4.1543 9.28125 4.21777 9.28125 4.29395C9.28125 4.37012 9.25586 4.43359 9.20508 4.48438C9.1543 4.53516 9.09082 4.56055 9.01465 4.56055Z"
    fill="#AAAAAA" />
</svg>