<svg width="13" height="13" viewBox="0 0 13 13" fill="none" xmlns="http://www.w3.org/2000/svg">
  <path
    d="M12.3184 0.0761719C12.2168 0.00846386 12.1025 -0.0148115 11.9756 0.00634766C11.8486 0.0275068 11.7513 0.0930986 11.6836 0.203125L10.6553 1.70117C10.6553 1.70117 10.6532 1.70329 10.6489 1.70752C10.6447 1.71175 10.6426 1.71387 10.6426 1.71387L10.2998 2.23438C10.1813 2.42057 10.0903 2.61947 10.0269 2.83105C9.96338 3.04264 9.93164 3.25846 9.93164 3.47852L9.90625 10.0293C9.90625 10.0885 9.88721 10.1372 9.84912 10.1753C9.81104 10.2134 9.7666 10.2324 9.71582 10.2324H9.70312C9.66927 10.2324 9.63965 10.224 9.61426 10.207C9.58887 10.1901 9.57194 10.1774 9.56348 10.1689C9.55501 10.1605 9.54443 10.1436 9.53174 10.1182C9.51904 10.0928 9.5127 10.0632 9.5127 10.0293L9.52539 6.29688C9.52539 5.92448 9.39632 5.60498 9.13818 5.33838C8.88005 5.07178 8.56478 4.93001 8.19238 4.91309L8.20508 2.24707C8.20508 2.08626 8.17334 1.9318 8.10986 1.78369C8.04639 1.63558 7.9554 1.50228 7.83691 1.38379C7.72689 1.2653 7.5957 1.17432 7.44336 1.11084C7.29102 1.04736 7.13444 1.01562 6.97363 1.01562L1.88281 1.00293C1.54427 1.00293 1.25651 1.12354 1.01953 1.36475C0.782552 1.60596 0.664062 1.89583 0.664062 2.23438L0.638672 11.2734C0.638672 11.4935 0.704264 11.6839 0.835449 11.8447C0.966634 12.0055 1.13379 12.1113 1.33691 12.1621V12.5176C1.33691 12.6445 1.38135 12.7546 1.47021 12.8477C1.55908 12.9408 1.66699 12.9873 1.79395 12.9873L6.99902 13C7.06673 13 7.12809 12.9873 7.18311 12.9619C7.23812 12.9365 7.28678 12.9027 7.3291 12.8604C7.37142 12.818 7.40527 12.7694 7.43066 12.7144C7.45605 12.6593 7.46875 12.598 7.46875 12.5303V12.1748C7.67188 12.1325 7.83903 12.0288 7.97021 11.8638C8.1014 11.6987 8.17122 11.5104 8.17969 11.2988L8.19238 5.85254C8.24316 5.85254 8.29183 5.86523 8.33838 5.89062C8.38493 5.91602 8.42513 5.94564 8.45898 5.97949C8.5013 6.02181 8.53304 6.07048 8.5542 6.12549C8.57536 6.1805 8.58594 6.23763 8.58594 6.29688V10.0293C8.57747 10.1816 8.60286 10.3255 8.66211 10.4609C8.72135 10.5964 8.80176 10.7191 8.90332 10.8291C9.01335 10.9307 9.13607 11.0111 9.27148 11.0703C9.4069 11.1296 9.55078 11.1592 9.70312 11.1592H9.71582C10.029 11.1592 10.2956 11.0492 10.5156 10.8291C10.7357 10.609 10.8457 10.3467 10.8457 10.042L10.8584 3.47852C10.8584 3.42773 10.8626 3.37484 10.8711 3.31982C10.8796 3.26481 10.888 3.21191 10.8965 3.16113C10.9727 3.20345 11.0552 3.23942 11.144 3.26904C11.2329 3.29867 11.3281 3.31348 11.4297 3.31348C11.6921 3.31348 11.9206 3.21826 12.1152 3.02783C12.3099 2.8374 12.4072 2.60677 12.4072 2.33594C12.4072 2.20898 12.3818 2.08626 12.3311 1.96777C12.2803 1.84928 12.2083 1.74349 12.1152 1.65039C12.0898 1.61654 12.0602 1.58691 12.0264 1.56152C11.9925 1.53613 11.9587 1.51497 11.9248 1.49805L12.4453 0.723633C12.5215 0.62207 12.5469 0.507812 12.5215 0.380859C12.4961 0.253906 12.4284 0.152344 12.3184 0.0761719ZM6.50391 2.7168V4.69727L2.36523 4.68457L2.37793 2.7041L6.50391 2.7168ZM11.9375 2.33594C11.9375 2.47982 11.8867 2.60042 11.7852 2.69775C11.6836 2.79508 11.5651 2.84375 11.4297 2.84375C11.2858 2.84375 11.1652 2.79508 11.0679 2.69775C10.9705 2.60042 10.9219 2.47982 10.9219 2.33594C10.9219 2.19206 10.9705 2.07145 11.0679 1.97412C11.1652 1.87679 11.2858 1.82812 11.4297 1.82812C11.5651 1.82812 11.6836 1.87679 11.7852 1.97412C11.8867 2.07145 11.9375 2.19206 11.9375 2.33594Z"
    fill="#AAAAAA" />
</svg>