<svg width="14" height="13" viewBox="0 0 14 13" fill="none" xmlns="http://www.w3.org/2000/svg">
  <path
    d="M7.37988 0C6.48275 0 5.64062 0.173503 4.85352 0.520508C4.06641 0.85905 3.37874 1.32243 2.79053 1.91064C2.20231 2.49886 1.73893 3.18652 1.40039 3.97363C1.05339 4.76074 0.879883 5.60286 0.879883 6.5C0.879883 7.39714 1.05339 8.23926 1.40039 9.02637C1.73893 9.81348 2.20231 10.5011 2.79053 11.0894C3.37874 11.6776 4.06641 12.141 4.85352 12.4795C5.64062 12.8265 6.48275 13 7.37988 13C8.27702 13 9.11914 12.8265 9.90625 12.4795C10.6934 12.141 11.381 11.6776 11.9692 11.0894C12.5575 10.5011 13.0208 9.81348 13.3594 9.02637C13.7064 8.23926 13.8799 7.39714 13.8799 6.5C13.8799 5.60286 13.7064 4.76074 13.3594 3.97363C13.0208 3.18652 12.5575 2.49886 11.9692 1.91064C11.381 1.32243 10.6934 0.85905 9.90625 0.520508C9.11914 0.173503 8.27702 0 7.37988 0ZM10.8203 8.70898C10.8203 8.83594 10.7759 8.94596 10.687 9.03906C10.5981 9.13216 10.4902 9.17871 10.3633 9.17871C10.2448 9.17871 10.1411 9.13216 10.0522 9.03906C9.96338 8.94596 9.91895 8.83594 9.91895 8.70898V7.00781H8.57324V8.70898C8.57324 8.83594 8.52881 8.94596 8.43994 9.03906C8.35107 9.13216 8.24316 9.17871 8.11621 9.17871C7.99772 9.17871 7.89404 9.13216 7.80518 9.03906C7.71631 8.94596 7.67188 8.83594 7.67188 8.70898V7.00781H6.32617V8.70898C6.32617 8.83594 6.28174 8.94596 6.19287 9.03906C6.104 9.13216 5.99609 9.17871 5.86914 9.17871C5.75065 9.17871 5.64697 9.13216 5.55811 9.03906C5.46924 8.94596 5.4248 8.83594 5.4248 8.70898V7.00781H3.69824C3.57129 7.00781 3.4528 6.95492 3.34277 6.84912C3.23275 6.74333 3.17773 6.57617 3.17773 6.34766V4.29102C3.17773 4.16406 3.22217 4.05404 3.31104 3.96094C3.3999 3.86784 3.50358 3.82129 3.62207 3.82129C3.74902 3.82129 3.85693 3.86784 3.9458 3.96094C4.03467 4.05404 4.0791 4.16406 4.0791 4.29102V6.06836H5.4248V4.29102C5.4248 4.16406 5.46924 4.05404 5.55811 3.96094C5.64697 3.86784 5.75065 3.82129 5.86914 3.82129C5.99609 3.82129 6.104 3.86784 6.19287 3.96094C6.28174 4.05404 6.32617 4.16406 6.32617 4.29102V6.06836H7.67188V4.29102C7.67188 4.16406 7.71631 4.05404 7.80518 3.96094C7.89404 3.86784 7.99772 3.82129 8.11621 3.82129C8.24316 3.82129 8.35107 3.86784 8.43994 3.96094C8.52881 4.05404 8.57324 4.16406 8.57324 4.29102V6.06836H9.91895V4.29102C9.91895 4.16406 9.96338 4.05404 10.0522 3.96094C10.1411 3.86784 10.2448 3.82129 10.3633 3.82129C10.4902 3.82129 10.5981 3.86784 10.687 3.96094C10.7759 4.05404 10.8203 4.16406 10.8203 4.29102V8.70898Z"
    fill="#AAAAAA" />
</svg>