<svg width="40" height="29" viewBox="0 0 40 29" fill="none" xmlns="http://www.w3.org/2000/svg">
    <path
        d="M38.3991 5.63652C38.3424 5.63652 38.2763 5.64124 38.2008 5.65068C38.1253 5.66012 38.0498 5.67428 37.9743 5.69316L36.3885 6.14624L34.7177 2.09678C34.4723 1.51155 34.0428 1.01598 33.4293 0.610094C32.8157 0.204205 32.1974 0.00125885 31.5744 0.00125885H15.943C15.32 0.00125885 14.7017 0.204205 14.0882 0.610094C13.4746 1.01598 13.0545 1.51155 12.828 2.09678L11.1572 6.11792L9.57145 5.69316C9.49593 5.67428 9.42042 5.66012 9.3449 5.65068C9.26939 5.64124 9.20331 5.63652 9.14668 5.63652C8.75023 5.63652 8.42929 5.76395 8.18387 6.01881C7.93845 6.27367 7.81574 6.60877 7.81574 7.0241V7.95859C7.81574 7.97746 7.81574 7.99634 7.81574 8.01522C7.81574 8.0341 7.82518 8.05298 7.84406 8.07186C7.65527 8.20401 7.4712 8.3456 7.29186 8.49663C7.11251 8.64766 6.93788 8.80812 6.76798 8.97803C5.88068 9.86532 5.20105 10.88 4.72909 12.0222C4.25712 13.1644 4.02114 14.3584 4.02114 15.6044C4.02114 16.6239 4.17689 17.6103 4.48839 18.5636C4.79988 19.517 5.25769 20.3901 5.8618 21.183L0.424768 26.5918C0.141589 26.8749 0 27.21 0 27.597C0 27.9841 0.141589 28.3097 0.424768 28.574C0.556919 28.725 0.707947 28.8336 0.877855 28.8997C1.04776 28.9657 1.22711 28.9988 1.41589 28.9988C1.5858 28.9988 1.76043 28.9657 1.93978 28.8997C2.11912 28.8336 2.27487 28.725 2.40702 28.574L7.84406 23.1653C8.65584 23.7694 9.53841 24.2272 10.4918 24.5387C11.4451 24.8502 12.4316 25.006 13.451 25.006C14.7159 25.006 15.9194 24.77 17.0615 24.298C18.2037 23.826 19.2184 23.1464 20.1057 22.2591C20.3889 21.9759 20.6532 21.6739 20.8986 21.3529C21.144 21.032 21.3706 20.7016 21.5782 20.3618H33.2735V22.3724C33.2735 22.8444 33.4434 23.2455 33.7832 23.5759C34.1231 23.9063 34.5195 24.0715 34.9726 24.0715H37.1814C37.6534 24.0715 38.0545 23.9063 38.3849 23.5759C38.7153 23.2455 38.8805 22.8444 38.8805 22.3724V14.3301C38.8805 13.7449 38.8049 13.0605 38.6539 12.2771C38.5029 11.4936 38.3141 10.8376 38.0876 10.309L37.8327 9.65766H38.0309C38.5029 9.65766 38.9041 9.49247 39.2344 9.1621C39.5648 8.83172 39.73 8.43055 39.73 7.95859V7.0241C39.73 6.60877 39.6073 6.27367 39.3619 6.01881C39.1164 5.76395 38.7955 5.63652 38.3991 5.63652ZM18.1234 20.2769C17.5005 20.881 16.7878 21.3529 15.9854 21.6928C15.1831 22.0326 14.3383 22.2025 13.451 22.2025C12.5637 22.2025 11.7189 22.0326 10.9165 21.6928C10.1142 21.3529 9.40154 20.881 8.77855 20.2769C8.15555 19.6539 7.67887 18.9412 7.34849 18.1389C7.01812 17.3365 6.85293 16.4917 6.85293 15.6044C6.85293 14.736 7.01812 13.9006 7.34849 13.0983C7.67887 12.2959 8.15555 11.5833 8.77855 10.9603C9.40154 10.3373 10.1142 9.86061 10.9165 9.53023C11.7189 9.19985 12.5637 9.03467 13.451 9.03467C14.3383 9.03467 15.1831 9.19985 15.9854 9.53023C16.7878 9.86061 17.5005 10.3373 18.1234 10.9603C18.7464 11.5833 19.2231 12.2959 19.5535 13.0983C19.8839 13.9006 20.0491 14.736 20.0491 15.6044C20.0491 16.4917 19.8839 17.3365 19.5535 18.1389C19.2231 18.9412 18.7464 19.6539 18.1234 20.2769ZM20.9836 9.96916C20.8514 9.79925 20.7145 9.62934 20.5729 9.45943C20.4314 9.28953 20.2756 9.12906 20.1057 8.97803C19.2184 8.09074 18.2037 7.41111 17.0615 6.93914C15.9194 6.46718 14.7159 6.2312 13.451 6.2312C13.4321 6.2312 13.418 6.2312 13.4085 6.2312C13.3991 6.2312 13.3944 6.2312 13.3944 6.2312L14.8952 2.6065C15.0274 2.24781 15.2775 1.95047 15.6456 1.71449C16.0138 1.47851 16.3866 1.36052 16.7642 1.36052H30.7532C31.1308 1.36052 31.5037 1.47851 31.8718 1.71449C32.2399 1.95047 32.4901 2.24781 32.6222 2.6065L35.1708 8.72317C35.303 9.06298 35.2888 9.3556 35.1283 9.60102C34.9679 9.84645 34.6989 9.96916 34.3213 9.96916H20.9836ZM35.6239 16.4823C35.6239 16.6711 35.5578 16.8315 35.4257 16.9637C35.2935 17.0958 35.1331 17.1619 34.9443 17.1619H30.1586C29.9698 17.1619 29.8093 17.0958 29.6771 16.9637C29.545 16.8315 29.4789 16.6711 29.4789 16.4823V14.1885C29.4789 13.9997 29.545 13.8393 29.6771 13.7071C29.8093 13.575 29.9698 13.5089 30.1586 13.5089H34.9443C35.1331 13.5089 35.2935 13.575 35.4257 13.7071C35.5578 13.8393 35.6239 13.9997 35.6239 14.1885V16.4823Z"
        fill="white" />
</svg>