<svg width="13" height="9" viewBox="0 0 13 9" fill="none" xmlns="http://www.w3.org/2000/svg">
  <path
    d="M12.0977 0C12.4023 0 12.6602 0.257812 12.6602 0.5625V8.4375C12.6602 8.76562 12.4023 9 12.0977 9H11.9102V8.53125C11.9102 8.39062 11.7695 8.25 11.6289 8.25H10.6914C10.5273 8.25 10.4102 8.39062 10.4102 8.53125V9H2.91016V8.53125C2.91016 8.39062 2.76953 8.25 2.62891 8.25H1.69141C1.52734 8.25 1.41016 8.39062 1.41016 8.53125V9H1.22266C0.894531 9 0.660156 8.76562 0.660156 8.4375V0.5625C0.660156 0.257812 0.894531 0 1.22266 0H1.41016V0.46875C1.41016 0.632812 1.52734 0.75 1.69141 0.75H2.62891C2.76953 0.75 2.91016 0.632812 2.91016 0.46875V0H10.4102V0.46875C10.4102 0.632812 10.5273 0.75 10.6914 0.75H11.6289C11.7695 0.75 11.9102 0.632812 11.9102 0.46875V0H12.0977ZM2.91016 7.21875V6.28125C2.91016 6.14062 2.76953 6 2.62891 6H1.69141C1.52734 6 1.41016 6.14062 1.41016 6.28125V7.21875C1.41016 7.38281 1.52734 7.5 1.69141 7.5H2.62891C2.76953 7.5 2.91016 7.38281 2.91016 7.21875ZM2.91016 4.96875V4.03125C2.91016 3.89062 2.76953 3.75 2.62891 3.75H1.69141C1.52734 3.75 1.41016 3.89062 1.41016 4.03125V4.96875C1.41016 5.13281 1.52734 5.25 1.69141 5.25H2.62891C2.76953 5.25 2.91016 5.13281 2.91016 4.96875ZM2.91016 2.71875V1.78125C2.91016 1.64062 2.76953 1.5 2.62891 1.5H1.69141C1.52734 1.5 1.41016 1.64062 1.41016 1.78125V2.71875C1.41016 2.88281 1.52734 3 1.69141 3H2.62891C2.76953 3 2.91016 2.88281 2.91016 2.71875ZM9.28516 7.59375V5.34375C9.28516 5.20312 9.14453 5.0625 9.00391 5.0625H4.31641C4.15234 5.0625 4.03516 5.20312 4.03516 5.34375V7.59375C4.03516 7.75781 4.15234 7.875 4.31641 7.875H9.00391C9.14453 7.875 9.28516 7.75781 9.28516 7.59375ZM9.28516 3.65625V1.40625C9.28516 1.26562 9.14453 1.125 9.00391 1.125H4.31641C4.15234 1.125 4.03516 1.26562 4.03516 1.40625V3.65625C4.03516 3.82031 4.15234 3.9375 4.31641 3.9375H9.00391C9.14453 3.9375 9.28516 3.82031 9.28516 3.65625ZM11.9102 7.21875V6.28125C11.9102 6.14062 11.7695 6 11.6289 6H10.6914C10.5273 6 10.4102 6.14062 10.4102 6.28125V7.21875C10.4102 7.38281 10.5273 7.5 10.6914 7.5H11.6289C11.7695 7.5 11.9102 7.38281 11.9102 7.21875ZM11.9102 4.96875V4.03125C11.9102 3.89062 11.7695 3.75 11.6289 3.75H10.6914C10.5273 3.75 10.4102 3.89062 10.4102 4.03125V4.96875C10.4102 5.13281 10.5273 5.25 10.6914 5.25H11.6289C11.7695 5.25 11.9102 5.13281 11.9102 4.96875ZM11.9102 2.71875V1.78125C11.9102 1.64062 11.7695 1.5 11.6289 1.5H10.6914C10.5273 1.5 10.4102 1.64062 10.4102 1.78125V2.71875C10.4102 2.88281 10.5273 3 10.6914 3H11.6289C11.7695 3 11.9102 2.88281 11.9102 2.71875Z"
    fill="white" />
</svg>